<?xml version="1.0" encoding="UTF-8"?>
<!-- Generator: Adobe Illustrator 12.0.0, SVG Export Plug-In . SVG Version: 6.00 Build 51448)  -->
<!DOCTYPE svg PUBLIC "-//W3C//DTD SVG 1.1//EN" "http://www.w3.org/Graphics/SVG/1.1/DTD/svg11.dtd" [
	<!ENTITY ns_svg "http://www.w3.org/2000/svg">
	<!ENTITY ns_xlink "http://www.w3.org/1999/xlink">
]>
<svg version="1.1" id="Layer_1" xmlns="http://www.w3.org/2000/svg" xmlns:xlink="http://www.w3.org/1999/xlink" width="547.2744141" height="177.8852539" viewBox="0 0 547.274 177.885" style="overflow: visible;" xml:space="preserve">
<style type="text/css">
<![CDATA[
	.st0{fill-rule:evenodd;clip-rule:evenodd;}
	.st1{fill-rule:evenodd;clip-rule:evenodd;fill:#5A9A98;}
]]>
</style>
<g>
	<path class="st1" d="M346.53125,100.3647461c0,20.7607422,6.2636719,40.6689453,18.1435547,57.5957031   c1.6074219,2.2880859,4.7763672,2.8515625,7.0839844,1.2402344c2.2978516-1.6142578,2.8457031-4.7861328,1.2373047-7.0839844   c-10.6689453-15.2021484-16.3095703-33.1054688-16.3095703-51.7519531c0-49.7324219,40.4775391-90.2001953,90.2099609-90.2001953   c49.7480469,0,90.2148438,40.4677734,90.2148438,90.2001953c0,8.4667969-1.1699219,16.8486328-3.4785156,24.8896484   c-0.7666016,2.7119141,0.7978516,5.5136719,3.4853516,6.2939453c2.6923828,0.7568359,5.5136719-0.7910156,6.2939453-3.4853516   c2.5585938-8.9619141,3.8623047-18.28125,3.8623047-27.6982422C547.2744141,45.0249023,502.2451172,0,446.8964844,0   C391.546875,0,346.53125,45.0249023,346.53125,100.3647461L346.53125,100.3647461z"/>
	<path class="st1" d="M366.859375,100.3647461c0,36.2099609,24.3847656,68.0019531,59.3212891,77.3505859   c2.7119141,0.7138672,5.5029297-0.8876953,6.2265625-3.6054688c0.7207031-2.7050781-0.8867188-5.4970703-3.5986328-6.2138672   c-30.4970703-8.1650391-51.7861328-35.9140625-51.7861328-67.53125c0-38.5302734,31.3447266-69.8740234,69.8740234-69.8740234   c27.0556641,0,51.9199219,15.8466797,63.3662109,40.3867188c1.1943359,2.5283203,4.2255859,3.6279297,6.7578125,2.4472656   c2.5380859-1.1865234,3.6484375-4.2207031,2.4541016-6.7578125c-13.1035156-28.0859375-41.5869141-46.2314453-72.578125-46.2314453   C402.7636719,20.3354492,366.859375,56.2407227,366.859375,100.3647461L366.859375,100.3647461z"/>
	<path class="st1" d="M387.1845703,100.3647461c0,32.9208984,26.7753906,59.7265625,59.7119141,59.7265625   c8.8046875,0,17.2900391-1.8710938,25.1972656-5.5693359c2.5488281-1.1806641,3.65625-4.203125,2.46875-6.7373047   c-1.1943359-2.5517578-4.1992188-3.65625-6.7578125-2.4785156c-6.5605469,3.0683594-13.5976563,4.6230469-20.9082031,4.6230469   c-27.3193359,0-49.5488281-22.2431641-49.5488281-49.5644531c0-27.3193359,22.2294922-49.5400391,49.5488281-49.5400391   c7.3408203,0,14.3916016,1.5537109,20.9648438,4.6357422c2.5351563,1.1777344,5.5605469,0.0966797,6.7607422-2.4550781   c1.1875-2.5478516,0.0800781-5.5625-2.4482422-6.7587891c-7.9443359-3.7138672-16.4423828-5.5849609-25.2773438-5.5849609   C413.9599609,40.6616211,387.1845703,67.4526367,387.1845703,100.3647461L387.1845703,100.3647461z"/>
	<path class="st1" d="M436.7265625,62.3149414c-17.2099609,4.5839844-29.2167969,20.2363281-29.2167969,38.0498047   c0,21.7275391,17.6669922,39.3847656,39.3867188,39.3847656c15.2314453,0,29.25-8.9082031,35.7138672-22.7294922   c1.1767578-2.5283203,0.0830078-5.5566406-2.4619141-6.7509766c-2.5507813-1.1777344-5.5566406-0.0800781-6.75,2.4619141   c-4.796875,10.2519531-15.1923828,16.8691406-26.5019531,16.8691406c-16.109375,0-29.2207031-13.1103516-29.2207031-29.2353516   c0-13.2138672,8.9082031-24.8291016,21.6591797-28.2265625c2.7177734-0.7285156,4.3261719-3.5078125,3.6054688-6.2128906   C442.2167969,63.206543,439.4316406,61.5913086,436.7265625,62.3149414L436.7265625,62.3149414z"/>
	<path class="st0" d="M13.1274414,124.5678711c0,8.2041016,6.3969727,11.3925781,13.6513672,11.3925781   c4.7460938,0,12.0048828-1.3769531,12.0048828-7.6777344c0-6.6572266-9.2416992-7.7910156-18.3139648-10.2060547   c-9.1533203-2.4042969-18.3955078-5.9501953-18.3955078-17.5214844c0-12.6240234,11.925293-18.6660156,23.0600586-18.6660156   c12.8691406,0,24.7045898,5.6083984,24.7045898,19.8769531H36.7109375   c-0.4335938-7.4433594-5.703125-9.3457031-12.1801758-9.3457031c-4.3178711,0-9.3237305,1.8291016-9.3237305,7.015625   c0,4.7460938,2.9331055,5.3369141,18.3969727,9.3085938c4.4863281,1.1445313,18.3076172,3.9726563,18.3076172,17.9677734   c0,11.3125-8.8969727,19.7714844-25.6499023,19.7714844c-13.6499023,0-26.4287109-6.7207031-26.2602539-21.9160156H13.1274414   L13.1274414,124.5678711z"/>
	<path class="st0" d="M68.7275391,125.6743164c0.3476563,7.7880859,4.1582031,11.3271484,10.9736328,11.3271484   c4.9228516,0,8.9013672-3.0214844,9.6708984-5.7832031h10.8037109   c-3.4570313,10.5224609-10.8037109,15.0253906-20.9013672,15.0253906c-14.0830078,0-22.8173828-9.6826172-22.8173828-23.4902344   c0-13.4052734,9.2558594-23.5820313,22.8173828-23.5820313c15.203125,0,22.5439453,12.7890625,21.6826172,26.5029297H68.7275391   L68.7275391,125.6743164L68.7275391,125.6743164z M88.6845703,117.8969727   c-1.1191406-6.1972656-3.8017578-9.4824219-9.7578125-9.4824219c-7.7822266,0-10.015625,6.0332031-10.1992188,9.4824219H88.6845703   L88.6845703,117.8969727z"/>
	<path class="st0" d="M198.3730469,142.1811523c0,7.3408203-2.2695313,19.7675781-22.8242188,19.7675781   c-8.8154297,0-19.4052734-4.1357422-20.0087891-14.3212891h12.1738281c1.1201172,4.5625,4.8359375,6.1298828,9.1533203,6.1298828   c6.8261719,0,9.9345703-4.6757813,9.8457031-11.0664063v-5.8730469h-0.1679688   c-2.6767578,4.6630859-8.0332031,6.9208984-13.3916016,6.9208984c-13.3837891,0-19.0878906-10.2099609-19.0878906-22.4736328   c0-11.5693359,6.6542969-22.09375,19.1835938-22.09375c5.8662109,0,10.3544922,1.9755859,13.2958984,7.1552734h0.1679688   v-5.9453125h11.6601563V142.1811523L198.3730469,142.1811523L198.3730469,142.1811523z M186.7128906,122.1362305   c0-7.2607422-2.5048828-13.7216797-10.4492188-13.7216797c-6.9072266,0-9.9277344,6.0332031-9.9277344,12.6972656   c0,6.390625,2.4169922,13.3847656,9.9277344,13.3847656C183.2578125,134.496582,186.7128906,128.5268555,186.7128906,122.1362305   L186.7128906,122.1362305z"/>
	<path class="st0" d="M206.0810547,114.1176758c0.6875-11.5029297,10.9746094-14.9462891,20.984375-14.9462891   c8.9101563,0,19.6113281,1.9755859,19.6113281,12.6816406v23.2333984c0,4.0595703,0.4335938,8.1220703,1.5605469,9.9326172   H235.78125c-0.4179688-1.3769531-0.7568359-2.8378906-0.8535156-4.3056641   c-3.8818359,4.0625-9.5888672,5.5302734-15.0205078,5.5302734c-8.4677734,0-15.2050781-4.2460938-15.2050781-13.3984375   c0-10.0917969,7.6074219-12.5136719,15.2050781-13.5644531c7.5175781-1.1171875,14.5048828-0.8564453,14.5048828-5.8701172   c0-5.2724609-3.6269531-6.0429688-7.9375-6.0429688c-4.6728516,0-7.6865234,1.8945313-8.1367188,6.75H206.0810547   L206.0810547,114.1176758L206.0810547,114.1176758z M234.4121094,123.1704102   c-2.0703125,1.8242188-6.3896484,1.9140625-10.1835938,2.5908203c-3.8203125,0.7910156-7.2607422,2.0712891-7.2607422,6.5605469   c0,4.5927734,3.5371094,5.703125,7.5019531,5.703125c9.5957031,0,9.9423828-7.5976563,9.9423828-10.265625V123.1704102   L234.4121094,123.1704102z"/>
	<path class="st0" d="M106.7783203,114.1176758c0.6855469-11.5029297,10.9619141-14.9462891,20.9824219-14.9462891   c8.8955078,0,19.6044922,1.9755859,19.6044922,12.6816406v23.2333984c0,4.0595703,0.4335938,8.1220703,1.5478516,9.9326172   h-12.4257813c-0.4355469-1.3769531-0.7871094-2.8378906-0.8603516-4.3056641   c-3.9003906,4.0625-9.5986328,5.5302734-15.0371094,5.5302734c-8.46875,0-15.2041016-4.2460938-15.2041016-13.3984375   c0-10.0917969,7.5976563-12.5136719,15.2041016-13.5644531c7.5175781-1.1171875,14.5117188-0.8564453,14.5117188-5.8701172   c0-5.2724609-3.6337891-6.0429688-7.9443359-6.0429688c-4.6728516,0-7.6943359,1.8945313-8.1132813,6.75H106.7783203   L106.7783203,114.1176758L106.7783203,114.1176758z M135.1015625,123.1704102   c-2.078125,1.8242188-6.3886719,1.9140625-10.1923828,2.5908203c-3.8027344,0.7910156-7.2529297,2.0712891-7.2529297,6.5605469   c0,4.5927734,3.5371094,5.703125,7.5175781,5.703125c9.5761719,0,9.9277344-7.5976563,9.9277344-10.265625V123.1704102   L135.1015625,123.1704102z"/>
	<path class="st0" d="M270.3183594,100.3813477h8.9765625v8.2099609h-8.9765625v22.109375   c0,4.1425781,1.0253906,5.1796875,5.1650391,5.1796875c1.2988281,0,2.5146484-0.0859375,3.8115234-0.3466797v9.5751953   c-2.0703125,0.3476563-4.7460938,0.4238281-7.1699219,0.4238281c-7.5185547,0-14.0849609-1.7070313-14.0849609-10.6025391   v-26.3388672h-7.4277344v-8.2099609h7.4277344V86.980957h12.2783203V100.3813477L270.3183594,100.3813477z"/>
	<path class="st0" d="M294.5136719,125.6743164c0.3476563,7.7880859,4.1494141,11.3271484,10.9667969,11.3271484   c4.9228516,0,8.8955078-3.0214844,9.6757813-5.7832031h10.7958984   c-3.4619141,10.5224609-10.7958984,15.0253906-20.8984375,15.0253906c-14.0751953,0-22.8037109-9.6826172-22.8037109-23.4902344   c0-13.4052734,9.2353516-23.5820313,22.8037109-23.5820313c15.1953125,0,22.5361328,12.7890625,21.6660156,26.5029297H294.5136719   L294.5136719,125.6743164L294.5136719,125.6743164z M314.4589844,117.8969727   c-1.1171875-6.1972656-3.7988281-9.4824219-9.7587891-9.4824219c-7.7675781,0-10.0087891,6.0332031-10.1865234,9.4824219   H314.4589844L314.4589844,117.8969727z"/>
</g>
</svg>