<svg id="Layer_1" data-name="Layer 1" xmlns="http://www.w3.org/2000/svg" width="7.35in" height="1.73in" viewBox="0 0 529.03 124.25">
  <title>logo</title>
  <g>
    <path d="M519,114.09a10.05,10.05,0,0,0,.75-5.29,8.17,8.17,0,0,0-3-5.23,22.76,22.76,0,0,0-4.59-2.75l-3.66-1.67a8.58,8.58,0,0,1-3.63-2.46,3.06,3.06,0,0,1-.71-2.08,3.78,3.78,0,0,1,1-2.65,7,7,0,0,1,3.76-1.88,18.33,18.33,0,0,1,4.6-.26,64.5,64.5,0,0,1,11.54,2.29c.63-1.44,3.14-7,4-8.84A86.13,86.13,0,0,0,511,80.59h-.38l-3.14,0c-15.95.42-20.2,9.41-20.38,9.82l-.14.29a9.54,9.54,0,0,0-.8,5.28,8.25,8.25,0,0,0,3,5.24,22.76,22.76,0,0,0,4.59,2.75l3.66,1.66c2.74,1.22,3.42,2.18,3.6,2.4a3.18,3.18,0,0,1,.74,2.15,3.73,3.73,0,0,1-1,2.64,6.93,6.93,0,0,1-3.75,1.88,19.14,19.14,0,0,1-4.6.27,75.73,75.73,0,0,1-12.48-2.47c-.75,1.92-2.71,6-4.29,9.46,4.37,1.21,15.66,2.5,22.22,2.24h.3c16.08-.19,20.45-9.23,20.8-9.88Z" style="fill: #231f20;isolation: isolate"/>
    <polygon points="387.3 123.31 404.45 123.31 422.75 81.56 405.61 81.54 387.3 123.31" style="fill: #231f20;isolation: isolate"/>
    <polygon points="348.56 123.31 331.06 123.31 355.72 67.03 373.22 67.01 348.56 123.31" style="fill: #231f20;isolation: isolate"/>
    <polygon points="376.7 123.3 359.19 123.31 383.85 67.03 401.35 67.01 376.7 123.3" style="fill: #231f20;isolation: isolate"/>
    <path d="M445.06,90.75a26.8,26.8,0,0,1,11.54-8.1,30.93,30.93,0,0,1,10.12-1.88S473,80.52,477,84a8.91,8.91,0,0,1,2.85,6.78,15.18,15.18,0,0,1-1,4.91s-.85,2.37-2,5.09l-9.88,22.5H449.73l9.77-22.18a20.34,20.34,0,0,0,1.07-2.88,4.1,4.1,0,0,0,0-2.47s-.59-2.25-3.9-2.65a14.15,14.15,0,0,0-7.41,1.09,14,14,0,0,0-5.9,5.12,28.67,28.67,0,0,0-2.1,3.88l-9,20.09H415.1l18.28-41.75,15.76,0-1.79,3.88a30.73,30.73,0,0,1-2.79,5Z" style="fill: #231f20;isolation: isolate"/>
    <path d="M333.25,102a24.61,24.61,0,0,0,.89-3.65,19.89,19.89,0,0,0,.24-3,12.91,12.91,0,0,0-2.94-8.58c-3.35-4-9.43-6.24-17.58-6.45a37.6,37.6,0,0,0-23.33,6.52A31.68,31.68,0,0,0,278.35,102l-.11.27a23.75,23.75,0,0,0-.86,3.66,19.89,19.89,0,0,0-.24,3,13,13,0,0,0,2.93,8.58c3.35,4,9.43,6.24,17.58,6.45A37.58,37.58,0,0,0,321,117.43a31.68,31.68,0,0,0,12.18-15.18Zm-17.1.24a20.53,20.53,0,0,1-6.41,8.44,14,14,0,0,1-7.86,2.82c-7.86.12-7.73-6.53-7.73-6.53a12.92,12.92,0,0,1,1-4.73l.13-.31a20.53,20.53,0,0,1,6.41-8.44,14,14,0,0,1,7.86-2.82c7.86-.12,7.73,6.53,7.73,6.53a12.92,12.92,0,0,1-1,4.73Z" style="fill: #231f20;isolation: isolate"/>
    <path d="M293.6,66.75l-6.05,12.19a49.75,49.75,0,0,0-9.33-.58s-11.58.2-19.59,7.1c0,0-6.15,4.9-7.7,11.88a13.77,13.77,0,0,0,.66,8.16s2.17,5.75,9.84,6.34c0,0,3.41.41,12.5-.59l-5.09,11.42a79.26,79.26,0,0,1-8.75.58,52.1,52.1,0,0,1-8.25-.41s-6.7-.73-11.25-3.42c0,0-7.2-3.65-8.7-11.4a26.32,26.32,0,0,1,2.34-16.91S239.06,79.27,254,71.84c0,0,12.58-7,31.67-5.88a70.08,70.08,0,0,1,7.46.71Z" style="fill: #231f20;isolation: isolate"/>
  </g>
  <g>
    <path d="M41.42,9.34l.11.07,0,0Z" style="fill: #231f20"/>
    <polygon points="377.89 56.31 360.41 56.3 385.07 0.02 402.57 0 377.89 56.31" style="fill: #231f20;isolation: isolate"/>
    <polygon points="406.02 56.31 388.54 56.3 413.19 0.02 430.69 0 406.02 56.31" style="fill: #231f20;isolation: isolate"/>
    <path d="M359.56,37.9a28.27,28.27,0,0,0,4.05-7.21A12,12,0,0,0,362,18.88c-3.25-3.94-9.12-4.94-9.12-4.94a42.16,42.16,0,0,0-12.07-.5c-12.44,1-21.12,9.19-21.12,9.19a29.49,29.49,0,0,0-9.32,13.64,17.52,17.52,0,0,0-.7,7.67c1.41,9.87,12.52,12.19,12.52,12.19a52.75,52.75,0,0,0,9,1.1,85.5,85.5,0,0,0,17.62-1l2.13-.38,4.27-9.26c-1.2.33-2.46.64-4.17,1a63.77,63.77,0,0,1-13,1.11,28.1,28.1,0,0,1-5.83-.85,10.11,10.11,0,0,1-4.44-2.56,6.29,6.29,0,0,1-1.53-3.58,7.2,7.2,0,0,1,.41-2.92l32.62-.5Zm-11.39-6-9.82.16a69.87,69.87,0,0,0-8.93.54l-.82.16.52-1.13a20,20,0,0,1,4.32-5.91,13.36,13.36,0,0,1,10-3.76,8.16,8.16,0,0,1,3.08.84,5.25,5.25,0,0,1,2.57,3.1C349.88,28.62,348.17,31.9,348.17,31.9Z" style="fill: #231f20;isolation: isolate"/>
    <path d="M276.61,45.37a49,49,0,0,1,4.45-6.66l18.8-24.19,19.48,0L283.87,56.29l-20.16,0,4-24.28s.75-4.83,2.37-7.29l-.54-.38a27.34,27.34,0,0,1-3.17,4.95l-21.7,27H225l6.64-41.73,15.58,0-3.58,21.65s-.75,5.37-2.9,8.91l.5.34c.71-1,2.21-3.54,4.49-6.48L265,14.54l17.18,0-3.81,23.65S277.73,42.58,276,45Z" style="fill: #231f20"/>
    <path d="M215.8,56.3H197.92l-6.15-19.4-8.52,19.39H165.91L190.6,0h17.34L197.48,23.52a52.68,52.68,0,0,1-5,9.13l.38.41,21.36-18.44,18.94-.06L215.28,28.69s-5.17,4.25-9.26,5.75a35.69,35.69,0,0,1,3.17,6.12Z" style="fill: #231f20"/>
    <path d="M123.33,35.25a24,24,0,0,0,.88-3.65,20.09,20.09,0,0,0,.24-3A13,13,0,0,0,121.52,20c-3.35-4-9.43-6.24-17.58-6.44a37.51,37.51,0,0,0-23.33,6.51A31.73,31.73,0,0,0,68.43,35.24l-.11.27a25,25,0,0,0-.87,3.66,19.89,19.89,0,0,0-.24,3,13,13,0,0,0,2.94,8.59c3.35,4,9.43,6.24,17.58,6.44a37.6,37.6,0,0,0,23.33-6.52,31.68,31.68,0,0,0,12.18-15.18Zm-17.1.23a20.61,20.61,0,0,1-6.41,8.45A14.05,14.05,0,0,1,92,46.74c-7.86.12-7.73-6.53-7.73-6.53a12.92,12.92,0,0,1,1-4.73l.13-.31a20.53,20.53,0,0,1,6.41-8.44,14,14,0,0,1,7.86-2.82c7.86-.12,7.73,6.53,7.73,6.53a12.92,12.92,0,0,1-1,4.73Z" style="fill: #231f20;isolation: isolate"/>
    <path d="M162.15,46.56a44.36,44.36,0,0,1-7,.73,13.22,13.22,0,0,1-7.1-1.69c-4.58-2.83-3.11-8-3-8.41,2.55-10,13.46-12.17,14.95-12.42a30.33,30.33,0,0,1,11.5.33L176,14.85a55.75,55.75,0,0,0-14.15-1.29A43.7,43.7,0,0,0,140.7,20.2c-7.23,4.79-12.26,11.91-13.46,19.06-.78,4.65-.48,13,10.19,16.52,2.12.7,5.31,1.24,11,1.24a83.4,83.4,0,0,0,9.46-.75Z" style="fill: #231f20;isolation: isolate"/>
    <path d="M51.07,31a19.82,19.82,0,0,1,5.63,1.56s5.69,2.38,2.69,10.13l-6,13.62H35.89l4.68-10.62a19,19,0,0,0,.94-2.75,5.49,5.49,0,0,0-3.75-6.82,17.12,17.12,0,0,0-4.94-.47c-2.87.06-6.29.16-6.29.16l-9,20.52H0L24.75.1,51.52,0s4,0,6.23.27c0,0,5,.31,7.94,2,0,0,5.12,2.56,5.87,8.19A16.14,16.14,0,0,1,68.31,22.6,19.94,19.94,0,0,1,55.94,30a26.8,26.8,0,0,1-4.63.44ZM40.26,26.35a24.77,24.77,0,0,0,6.13-.62C51.45,24.1,53.26,19,53.26,19c1.81-4.44-.56-7.31-.56-7.31a6.61,6.61,0,0,0-4.25-2.31,36.75,36.75,0,0,0-5.18-.27l-5.15.14-7.42,17Z" style="fill: #231f20;isolation: isolate"/>
  </g>
  <g>
    <polygon points="388.55 56.24 406.03 56.26 401.33 67.03 383.83 67.06 388.55 56.24" style="fill: #e45620"/>
    <polygon points="360.42 56.26 377.91 56.28 373.2 67.05 355.7 67.08 360.42 56.26" style="fill: #e45620"/>
    <polygon points="416.49 56.14 434.16 56.13 429.22 67.45 411.51 67.47 416.49 56.14" style="fill: #e45620"/>
  </g>
</svg>
