<?xml version="1.0" encoding="iso-8859-1"?>
<!-- Generator: Adobe Illustrator 21.0.0, SVG Export Plug-In . SVG Version: 6.00 Build 0)  -->
<!DOCTYPE svg PUBLIC "-//W3C//DTD SVG 1.1//EN" "http://www.w3.org/Graphics/SVG/1.1/DTD/svg11.dtd">
<svg version="1.1" id="Layer_1" xmlns="http://www.w3.org/2000/svg" xmlns:xlink="http://www.w3.org/1999/xlink" x="0px" y="0px"
	 width="569.075px" height="183.27px" viewBox="0 0 569.075 183.27" style="enable-background:new 0 0 569.075 183.27;"
	 xml:space="preserve">
<g>
	<g>
		<path d="M6.266,172.906c-1.609,0-4.203-0.086-6.266-0.129v-27.324c1.742,0,3.959-0.082,7.209-0.082
			c5.828,0,8.459,2.512,8.459,6.395c0,3.039-1.91,5.551-5.148,6.559v0.043c4.289,0.605,5.984,3.477,5.984,6.398
			C16.504,167.555,15.008,172.906,6.266,172.906z M6.748,147.434c-1.399,0-2.912,0.039-4.162,0.082v10.086
			c0.883,0.035,1.66,0.035,2.764,0.035c5.082,0,7.625-1.988,7.625-5.426C12.975,149.457,11.695,147.434,6.748,147.434z
			 M5.35,159.621c-0.529,0-2.033,0-2.764,0.039v10.895c0.816,0.117,2.07,0.238,3.932,0.238c5.178,0,7.326-2.551,7.326-5.91
			C13.844,160.754,10.072,159.621,5.35,159.621z"/>
		<path d="M35.259,172.777c0-1.41,0.129-3.438,0.377-4.691l-0.084-0.043c-1.137,3.074-3.733,5.059-7.3,5.059
			c-4.639,0-6.059-2.867-6.059-6.441v-14.004h2.539v13.035c0,3.363,0.889,5.348,4.095,5.348c3.799,0,6.477-3.688,6.477-8.785v-9.598
			h2.554v20.121H35.259z"/>
		<path d="M47.208,147.957c-0.995,0-1.811-0.809-1.811-1.82c0-1.004,0.815-1.82,1.811-1.82c1.022,0,1.834,0.773,1.834,1.82
			C49.042,147.105,48.231,147.957,47.208,147.957z M45.922,172.777v-20.121h2.54v20.121H45.922z"/>
		<path d="M56.523,172.777v-29.555h2.541v29.555H56.523z"/>
		<path d="M90.672,147.957c-0.992,0-1.812-0.809-1.812-1.82c0-1.004,0.82-1.82,1.812-1.82c1.024,0,1.833,0.773,1.833,1.82
			C92.505,147.105,91.697,147.957,90.672,147.957z M89.384,172.777v-20.121h2.538v20.121H89.384z"/>
		<path d="M79.134,172.777c0-1.293,0.117-3.355,0.354-4.617l-0.078-0.039c-1.097,3.039-3.776,4.98-7.011,4.98
			c-5.023,0-7.452-3.602-7.452-9.469c0-7.293,4.088-11.215,10.257-11.215c1.246,0,2.504,0.074,3.964,0.238v-9.434h2.548v29.555
			H79.134z M79.168,154.961c-1.46-0.359-2.875-0.523-4.214-0.523c-4.426,0-7.286,2.633-7.286,8.949c0,4.773,1.617,7.652,5.141,7.652
			c4.333,0,6.359-5.055,6.359-8.668V154.961z"/>
		<path d="M113.113,172.777v-13.035c0-3.359-0.93-5.344-4.083-5.344c-3.808,0-6.479,3.688-6.479,8.785v9.594h-2.566v-20.121h2.599
			c0,1.418-0.113,3.449-0.36,4.695l0.07,0.035c1.149-3.07,3.729-5.051,7.295-5.051c4.672,0,6.075,2.871,6.075,6.434v14.008H113.113z
			"/>
		<path d="M129.257,183.27c-5.012,0-8.332-2.227-8.332-6.035c0-2.547,1.667-4.496,3.613-5.629c-1.259-0.527-2.036-1.664-2.036-2.953
			c0-1.336,0.816-2.551,2.152-3.242c-1.862-1.133-2.949-2.957-2.949-5.621c0-3.973,2.985-7.453,8.29-7.453
			c0.984,0,1.578,0.117,2.555,0.32h6.848v2.031h-3.813c1.298,0.961,2.059,2.582,2.059,4.52c0,4.062-2.706,7.379-8.386,7.379
			c-0.961,0-1.731-0.129-2.544-0.363c-1.004,0.438-1.57,1.219-1.57,1.98c0,1.254,1.212,1.664,3.72,1.785l4.089,0.16
			c4.328,0.16,6.677,2.305,6.677,5.707C139.628,180.105,135.351,183.27,129.257,183.27z M132.226,172.41l-4.212-0.156
			c-0.44,0-0.964,0-1.375,0c-1.863,1.207-3.07,2.75-3.07,4.57c0,2.75,2.661,4.336,6.185,4.336c4.656,0,7.246-2.102,7.246-4.938
			C136.999,173.906,135.463,172.539,132.226,172.41z M129.835,154.316c-3.515,0-5.542,2.27-5.542,5.223
			c0,3.238,1.938,5.066,5.34,5.066c3.319,0,5.426-1.871,5.426-5.105C135.058,156.301,133.155,154.316,129.835,154.316z"/>
		<path d="M160.039,173.059c-3.937,0-5.071-1.773-5.071-5.824v-12.547h-4.578v-2.031h4.578v-6.801l2.547-0.695v7.496h6.212v2.031
			h-6.212v11.297c0,3.836,0.695,4.809,3.191,4.809c1.07,0,2.052-0.121,2.812-0.32l0.36,2.184
			C162.78,172.906,161.292,173.059,160.039,173.059z"/>
		<path d="M177.257,154.84c-4.578-0.73-6.766,2.918-6.766,9.926v8.012h-2.555v-20.121h2.598c0,1.418-0.164,3.48-0.527,5.266
			l0.073,0.035c0.778-2.996,2.887-6.152,7.286-5.582L177.257,154.84z"/>
		<path d="M193.433,172.777c0-1.41,0.121-3.438,0.359-4.691l-0.087-0.043c-1.125,3.074-3.733,5.059-7.276,5.059
			c-4.665,0-6.074-2.867-6.074-6.441v-14.004h2.543v13.035c0,3.363,0.895,5.348,4.098,5.348c3.797,0,6.472-3.688,6.472-8.785v-9.598
			h2.543v20.121H193.433z"/>
		<path d="M206.785,173.102c-1.547,0-3.238-0.164-4.488-0.527l0.367-2.426c1.288,0.484,3.031,0.773,4.578,0.773
			c2.984,0,5.18-1.422,5.18-3.688c0-5.219-10.212-1.91-10.212-9.148c0-3.328,2.625-5.75,7.61-5.75c1.293,0,2.84,0.156,4.051,0.441
			l-0.332,2.184c-1.246-0.359-2.66-0.605-4.087-0.605c-3.104,0-4.644,1.336-4.644,3.449c0,5.215,10.25,2.02,10.25,9.062
			C215.058,170.309,211.959,173.102,206.785,173.102z"/>
		<path d="M227.03,173.059c-3.917,0-5.058-1.773-5.058-5.824v-12.547h-4.583v-2.031h4.583v-6.801l2.546-0.695v7.496h6.191v2.031
			h-6.191v11.297c0,3.836,0.691,4.809,3.191,4.809c1.064,0,2.036-0.121,2.801-0.32l0.372,2.184
			C229.78,172.906,228.289,173.059,227.03,173.059z"/>
		<path d="M259.945,161.887h-13.656c-0.23,6.391,2.23,9.035,6.934,9.035c1.938,0,3.973-0.406,5.66-1.172l0.492,2.137
			c-1.911,0.77-4.215,1.215-6.715,1.215c-5.875,0-9.075-3.234-9.075-10.324c0-5.988,3.231-10.441,8.704-10.441
			c5.457,0,7.737,3.77,7.737,8.09C260.026,160.711,260.026,161.203,259.945,161.887z M252.117,154.273
			c-2.988,0-5.129,2.148-5.669,5.668h10.86C257.389,156.539,255.393,154.273,252.117,154.273z"/>
		<path d="M272.726,172.777h-2.672l-7.661-20.121h2.915l5.03,14.047c0.441,1.219,0.763,2.234,1.091,3.355h0.034
			c0.337-1.051,0.7-2.176,1.095-3.234l5.137-14.168h2.835L272.726,172.777z"/>
		<path d="M299.311,161.887h-13.636c-0.25,6.391,2.223,9.035,6.917,9.035c1.954,0,3.977-0.406,5.657-1.172l0.508,2.137
			c-1.906,0.77-4.211,1.215-6.718,1.215c-5.875,0-9.071-3.234-9.071-10.324c0-5.988,3.228-10.441,8.696-10.441
			c5.464,0,7.742,3.77,7.742,8.09C299.405,160.711,299.405,161.203,299.311,161.887z M291.507,154.273
			c-2.993,0-5.141,2.148-5.673,5.668h10.856C296.765,156.539,294.78,154.273,291.507,154.273z"/>
		<path d="M314.796,154.84c-4.57-0.73-6.758,2.918-6.758,9.926v8.012h-2.547v-20.121h2.594c0,1.418-0.156,3.48-0.523,5.266
			l0.078,0.035c0.766-2.996,2.867-6.152,7.281-5.582L314.796,154.84z"/>
		<path d="M325.429,174.84c-2.348,6.16-4.625,8.43-9.074,8.43c-0.637,0-1.461-0.121-2.023-0.246l0.277-2.348
			c0.617,0.199,1.594,0.324,2.312,0.324c2.391,0,4.133-1.223,5.883-5.758l0.961-2.465l-7.773-20.121h3l4.539,12.387
			c0.68,1.867,1.086,3.199,1.539,4.66h0.039c0.32-1.215,1.172-3.684,2.023-6.113l3.883-10.934h2.797L325.429,174.84z"/>
		<path d="M358.671,172.777c0-1.293,0.109-3.355,0.375-4.617l-0.086-0.039c-1.094,3.039-3.773,4.98-7.016,4.98
			c-5.012,0-7.445-3.602-7.445-9.469c0-7.293,4.082-11.215,10.234-11.215c1.266,0,2.523,0.074,3.977,0.238v-9.434h2.562v29.555
			H358.671z M358.71,154.961c-1.453-0.359-2.867-0.523-4.215-0.523c-4.402,0-7.289,2.633-7.289,8.949
			c0,4.773,1.625,7.652,5.144,7.652c4.332,0,6.359-5.055,6.359-8.668V154.961z"/>
		<path d="M379.835,172.777c0-1.617,0.051-3.238,0.258-4.41l-0.094-0.043c-0.977,2.633-3.602,4.777-7.125,4.777
			c-3.125,0-5.461-1.984-5.461-5.219c0-4.012,4.246-6.844,12.383-6.844V159.5c0-3.277-1.172-5.102-4.766-5.102
			c-1.949,0-4.352,0.645-5.957,1.539l-0.664-2.148c1.914-0.848,4.465-1.453,7.008-1.453c5.434,0,6.926,2.75,6.926,6.434v7.769
			c0,2.066,0.039,4.418,0.086,6.238H379.835z M379.796,163.02c-7.609,0-9.801,2.184-9.801,4.453c0,2.027,1.371,3.527,3.484,3.527
			c3.801,0,6.316-3.809,6.316-7.496V163.02z"/>
		<path d="M395.53,174.84c-2.336,6.16-4.594,8.43-9.055,8.43c-0.656,0-1.457-0.121-2.039-0.246l0.305-2.348
			c0.59,0.199,1.562,0.324,2.297,0.324c2.391,0,4.129-1.223,5.859-5.758l0.977-2.465l-7.773-20.121h3l4.539,12.387
			c0.676,1.867,1.094,3.199,1.547,4.66h0.039c0.305-1.215,1.172-3.684,2.023-6.113l3.883-10.934h2.781L395.53,174.84z"/>
	</g>
	<g>
		<path style="enable-background:new    ;" d="M559.012,114.088c1.183-2.687,0.761-5.195,0.745-5.288
			c-0.432-3.359-2.91-5.183-2.973-5.234c-1.709-1.458-4.537-2.729-4.585-2.75l-3.665-1.667c-2.734-1.212-3.44-2.246-3.625-2.458
			c-0.584-0.667-0.71-1.433-0.71-2.083c0-1.258,0.513-2.087,1.023-2.646c1.369-1.504,3.598-1.857,3.756-1.878
			c2.117-0.454,4.527-0.271,4.598-0.267c4.416,0.291,9.43,1.74,11.541,2.291c0.637-1.433,3.143-7,3.959-8.834
			c-2.772-0.774-10.133-2.408-18.064-2.682l-0.382-0.001c0,0-3.118,0.014-3.144,0.017c-15.949,0.422-20.194,9.416-20.378,9.826
			l-0.136,0.287c-1.25,2.688-0.818,5.188-0.802,5.282c0.43,3.359,2.908,5.181,2.972,5.234c1.708,1.458,4.536,2.729,4.584,2.75
			l3.666,1.666c2.734,1.212,3.414,2.18,3.6,2.392c0.583,0.667,0.734,1.499,0.734,2.15c0,1.257-0.512,2.085-1.022,2.646
			c-1.368,1.504-3.596,1.857-3.754,1.878c-2.118,0.454-4.529,0.272-4.6,0.268c-4.415-0.291-10.372-1.912-12.484-2.463
			c-0.75,1.917-2.708,6.042-4.291,9.459c4.375,1.208,15.665,2.5,22.228,2.233c0,0,0.269-0.004,0.295-0.004
			c16.081-0.188,20.456-9.229,20.798-9.881L559.012,114.088z"/>
		<polygon style="enable-background:new    ;" points="427.345,123.31 444.503,123.312 462.803,81.561 445.655,81.54 		"/>
		<polygon style="enable-background:new    ;" points="388.61,123.312 371.113,123.31 395.769,67.028 413.269,67.013 		"/>
		<polygon style="enable-background:new    ;" points="416.752,123.296 399.238,123.31 423.895,67.028 441.395,67.013 		"/>
		<path style="enable-background:new    ;" d="M485.103,90.751c0,0,3.916-5.292,11.541-8.104c0,0,4.75-1.875,10.125-1.875
			c0,0,6.25-0.25,10.312,3.25c0,0,3.032,2.562,2.846,6.782c0,0-0.033,2.438-1.033,4.905c0,0-0.842,2.375-2.029,5.095l-9.875,22.5
			l-17.207-0.008l9.77-22.18c0,0,0.625-1.312,1.062-2.875c0,0,0.438-1.375-0.033-2.47c0,0-0.592-2.25-3.904-2.655
			c0,0-3.908-0.595-7.408,1.093c0,0-3.654,1.5-5.904,5.125c0,0-1.125,1.688-2.096,3.875l-9,20.095h-17.125l18.283-41.75
			l15.759-0.053l-1.792,3.875c0,0-1.195,2.823-2.791,5.041L485.103,90.751z"/>
		<path style="enable-background:new    ;" d="M373.298,101.975c0.38-1.188,0.689-2.403,0.886-3.65c0.16-1.046,0.24-2.054,0.24-3.02
			c0-3.376-0.979-6.259-2.932-8.589c-3.355-4.013-9.432-6.238-17.588-6.441c-8.515-0.336-16.311,1.717-23.33,6.517
			c-5.875,3.971-10.137,9.483-12.172,15.176l-0.111,0.271c-0.381,1.19-0.67,2.41-0.867,3.657c-0.159,1.046-0.24,2.054-0.24,3.02
			c0,3.376,0.982,6.259,2.932,8.589c3.355,4.012,9.433,6.238,17.588,6.441c8.516,0.335,16.312-1.717,23.33-6.517
			c5.875-3.971,10.137-9.483,12.173-15.176L373.298,101.975z M356.202,102.212c-2.302,5.578-6.415,8.441-6.415,8.441
			c-3.835,2.877-7.857,2.816-7.857,2.816c-7.857,0.122-7.735-6.528-7.735-6.528c-0.054-2.088,0.75-4.2,0.967-4.73l0.124-0.314
			c2.303-5.577,6.414-8.44,6.414-8.44c3.836-2.878,7.858-2.815,7.858-2.815c7.858-0.125,7.735,6.526,7.735,6.526
			c0.053,2.09-0.75,4.199-0.967,4.731L356.202,102.212z"/>
		<path style="enable-background:new    ;" d="M333.644,66.753l-6.046,12.188c0,0-5.116-0.837-9.334-0.584
			c0,0-11.574,0.204-19.581,7.104c0,0-6.159,4.896-7.708,11.875c0,0-1.083,4.001,0.667,8.167c0,0,2.166,5.75,9.834,6.333
			c0,0,3.416,0.417,12.502-0.583l-5.087,11.416c0,0-4.499,0.584-8.749,0.584c0,0-4.167,0.166-8.25-0.417c0,0-6.7-0.729-11.25-3.417
			c0,0-7.2-3.645-8.7-11.395c0,0-2.083-8.083,2.333-16.917c0,0,4.833-11.834,19.783-19.271c0,0,12.583-7.002,31.67-5.875
			c0,0,3.125,0.083,7.456,0.708L333.644,66.753z"/>
	</g>
	<g>
		<path d="M81.472,9.344c0.013,0.008,0.086,0.051,0.111,0.065c0.013,0.006,0.028,0.011,0.038,0.019L81.472,9.344z"/>
		<polygon style="enable-background:new    ;" points="417.94,56.313 400.457,56.297 425.115,0.016 442.615,0.001 		"/>
		<polygon style="enable-background:new    ;" points="446.066,56.313 428.583,56.297 453.24,0.016 470.74,0.001 		"/>
		<path style="enable-background:new    ;" d="M399.613,37.897c2.688-3.375,4.041-7.209,4.041-7.209
			c2.625-7-1.625-11.812-1.625-11.812c-3.25-3.938-9.125-4.938-9.125-4.938c-5.686-1.25-12.062-0.5-12.062-0.5
			c-12.439,1-21.125,9.188-21.125,9.188c-7.439,6.312-9.314,13.646-9.314,13.646c-1.331,3.792-0.708,7.667-0.708,7.667
			c1.418,9.875,12.522,12.188,12.522,12.188c4.186,0.979,9,1.104,9,1.104s7.936,0.562,17.626-1l2.125-0.375l4.269-9.263
			c-1.196,0.328-2.457,0.638-4.167,0.963c-0.305,0.058-7.325,1.397-12.956,1.102c0,0-3.21-0.093-5.835-0.843
			c0,0-3-0.812-4.436-2.562c0,0-1.439-1.553-1.531-3.584c0,0-0.157-1.166,0.406-2.916l32.626-0.5L399.613,37.897z M388.219,31.901
			l-9.825,0.162c-0.971,0-6.583,0.072-8.927,0.541l-0.814,0.156c0,0,0.49-1.094,0.511-1.134c1.109-2.275,2.601-4.316,4.324-5.908
			c2.981-2.707,6.539-4.04,9.997-3.757c0.196,0.014,1.972,0.156,3.084,0.837c0.191,0.091,1.96,1.016,2.566,3.104
			C389.924,28.618,388.219,31.901,388.219,31.901z"/>
		<path d="M316.654,45.375c1.418-2.833,4.459-6.667,4.459-6.667l18.793-24.187l19.48,0.021l-35.471,41.749l-20.155,0.031
			l3.978-24.281c0,0,0.75-4.833,2.375-7.292l-0.541-0.375c-1.168,2.5-3.176,4.941-3.176,4.941l-21.699,26.976h-19.656l6.633-41.73
			l15.587-0.041l-3.585,21.646c0,0-0.75,5.375-2.895,8.917l0.5,0.333c0.708-1.042,2.208-3.542,4.49-6.481l19.27-24.393l17.178-0.021
			l-3.814,23.646c0,0-0.625,4.417-2.332,6.875L316.654,45.375z"/>
		<path d="M255.845,56.296H237.97l-6.148-19.401l-8.521,19.396h-17.344L230.645,0.01L247.988,0L237.53,23.52
			c0,0-2.333,5.542-5,9.125l0.375,0.417l21.362-18.438l18.938-0.062L255.33,28.687c0,0-5.175,4.25-9.258,5.75
			c0,0,1.542,2.208,3.167,6.125L255.845,56.296z"/>
		<path style="enable-background:new    ;" d="M163.376,35.247c0.381-1.188,0.689-2.402,0.887-3.65c0.16-1.047,0.24-2.055,0.24-3.02
			c0-3.377-0.98-6.258-2.932-8.59c-3.355-4.011-9.432-6.238-17.588-6.441c-8.516-0.335-16.311,1.717-23.33,6.517
			c-5.875,3.971-10.137,9.483-12.172,15.176l-0.111,0.271c-0.381,1.189-0.67,2.409-0.867,3.657c-0.16,1.047-0.24,2.055-0.24,3.02
			c0,3.377,0.98,6.258,2.932,8.59c3.356,4.012,9.432,6.238,17.588,6.441c8.516,0.334,16.311-1.717,23.33-6.518
			c5.875-3.971,10.137-9.482,12.172-15.177L163.376,35.247z M146.281,35.483c-2.302,5.579-6.414,8.442-6.414,8.442
			c-3.836,2.877-7.858,2.816-7.858,2.816c-7.857,0.123-7.734-6.529-7.734-6.529c-0.054-2.088,0.75-4.198,0.967-4.729l0.124-0.315
			c2.302-5.578,6.414-8.441,6.414-8.441c3.836-2.877,7.858-2.815,7.858-2.815c7.857-0.125,7.734,6.527,7.734,6.527
			c0.054,2.088-0.75,4.199-0.967,4.731L146.281,35.483z"/>
		<path style="enable-background:new    ;" d="M202.196,46.562c-4.184,0.715-6.92,0.735-6.987,0.727
			c-4.43,0.064-7.026-1.635-7.097-1.686c-4.583-2.833-3.117-7.956-3-8.416c2.542-10,13.458-12.167,14.941-12.416
			c4.756-0.799,8.892-0.251,11.499,0.333l4.5-10.25c-6.792-1.666-14.038-1.301-14.149-1.294c-5.723,0.224-14.285,2.085-21.158,6.637
			c-7.226,4.789-12.261,11.916-13.462,19.062c-0.774,4.646-0.478,12.975,10.189,16.523c2.12,0.696,5.319,1.239,10.997,1.239
			c0.043,0,4.25-0.042,9.459-0.75L202.196,46.562z"/>
		<path style="enable-background:new    ;" d="M91.123,30.978c0,0,3.813,0.5,5.625,1.562c0,0,5.688,2.375,2.688,10.125l-6,13.625
			h-17.5l4.687-10.625c0,0,0.625-1.438,0.938-2.75c0,0,1.5-5-3.75-6.812c0,0-1.688-0.531-4.938-0.469
			c-2.874,0.056-6.291,0.157-6.291,0.157l-8.955,20.521l-17.578-0.016L64.801,0.104l26.771-0.083c0,0,3.979,0.021,6.229,0.271
			c0,0,5.018,0.312,7.938,2c0,0,5.125,2.563,5.875,8.188c0,0,1.247,6.375-3.25,12.125c0,0-3.916,5.833-12.375,7.438
			c0,0-2.208,0.438-4.625,0.438L91.123,30.978z M80.31,26.353c3.937,0,6.125-0.625,6.125-0.625c5.062-1.625,6.875-6.688,6.875-6.688
			c1.812-4.438-0.563-7.312-0.563-7.312c-1.562-2.062-4.25-2.312-4.25-2.312c-1.75-0.312-5.176-0.269-5.176-0.269l-5.157,0.145
			l-7.417,17L80.31,26.353z"/>
	</g>
	<g>
		<polygon style="fill:#DF542A;" points="428.599,56.245 446.082,56.26 441.379,67.028 423.878,67.061 		"/>
		<polygon style="fill:#DF542A;" points="400.473,56.26 417.956,56.276 413.253,67.045 395.753,67.075 		"/>
		<polygon style="fill:#DF542A;" points="456.536,56.141 474.207,56.125 469.27,67.45 451.563,67.466 		"/>
	</g>
</g>
<g>
</g>
<g>
</g>
<g>
</g>
<g>
</g>
<g>
</g>
<g>
</g>
<g>
</g>
<g>
</g>
<g>
</g>
<g>
</g>
<g>
</g>
<g>
</g>
</svg>
